<svg width="49" height="49" viewBox="0 0 49 49" fill="none" xmlns="http://www.w3.org/2000/svg">
<mask id="mask0_119_456" style="mask-type:alpha" maskUnits="userSpaceOnUse" x="0" y="0" width="49" height="49">
<rect width="49" height="49" fill="#D9D9D9"/>
</mask>
<g mask="url(#mask0_119_456)">
<path d="M15.5482 40.8332C14.6347 40.8332 13.8566 40.512 13.214 39.8694C12.5715 39.2268 12.2502 38.4487 12.2502 37.5352V12.2499H10.2085V10.2082H18.3752V8.6377H30.6252V10.2082H38.7918V12.2499H36.7502V37.5352C36.7502 38.4749 36.4354 39.2595 35.8059 39.889C35.1764 40.5185 34.3918 40.8332 33.4521 40.8332H15.5482ZM34.7085 12.2499H14.2918V37.5352C14.2918 37.9016 14.4096 38.2026 14.6452 38.4382C14.8808 38.6738 15.1818 38.7916 15.5482 38.7916H33.4521C33.7662 38.7916 34.0541 38.6607 34.3159 38.399C34.5776 38.1372 34.7085 37.8493 34.7085 37.5352V12.2499ZM20.0242 34.7082H22.0659V16.3332H20.0242V34.7082ZM26.9344 34.7082H28.9762V16.3332H26.9344V34.7082Z" fill="#991B1B"/>
</g>
</svg>
