<svg width="42" height="42" viewBox="0 0 42 42" fill="none" xmlns="http://www.w3.org/2000/svg">
<mask id="mask0_112_86" style="mask-type:alpha" maskUnits="userSpaceOnUse" x="0" y="0" width="42" height="42">
<rect x="0.75" y="0.75" width="40.5" height="40.5" fill="#D9D9D9"/>
</mask>
<g mask="url(#mask0_112_86)">
<path d="M13.6009 34.5C12.8459 34.5 12.2028 34.2345 11.6717 33.7033C11.1406 33.1722 10.875 32.5291 10.875 31.7741V10.875H9.1875V9.18751H15.9375V7.8894H26.0625V9.18751H32.8125V10.875H31.125V31.7741C31.125 32.5507 30.8648 33.1992 30.3445 33.7195C29.8242 34.2399 29.1757 34.5 28.3991 34.5H13.6009ZM29.4375 10.875H12.5625V31.7741C12.5625 32.0769 12.6599 32.3257 12.8546 32.5205C13.0493 32.7152 13.2981 32.8125 13.6009 32.8125H28.3991C28.6586 32.8125 28.8966 32.7043 29.113 32.488C29.3293 32.2716 29.4375 32.0337 29.4375 31.7741V10.875ZM17.3005 29.4375H18.988V14.25H17.3005V29.4375ZM23.012 29.4375H24.6995V14.25H23.012V29.4375Z" fill="#450A0A"/>
</g>
</svg>
