<svg width="42" height="42" viewBox="0 0 42 42" fill="none" xmlns="http://www.w3.org/2000/svg">
<mask id="mask0_112_76" style="mask-type:alpha" maskUnits="userSpaceOnUse" x="0" y="0" width="42" height="42">
<rect x="0.75" y="0.75" width="40.5" height="40.5" fill="#D9D9D9"/>
</mask>
<g mask="url(#mask0_112_76)">
<path d="M9.5059 19.6791L13.6402 21.4283C14.1638 20.3812 14.7339 19.3676 15.3505 18.3876C15.9671 17.4075 16.6475 16.4545 17.3917 15.5286L14.802 15.032C14.629 14.9888 14.4613 14.9942 14.299 15.0483C14.1368 15.1024 13.9907 15.1943 13.8609 15.3241L9.5059 19.6791ZM14.9773 22.4992L19.7542 27.2664C21.0869 26.665 22.4282 25.9002 23.7782 24.9721C25.1282 24.044 26.4263 22.9568 27.6725 21.7106C29.4898 19.8933 30.8782 17.9554 31.8377 15.8969C32.7972 13.8383 33.3364 11.4612 33.4554 8.76558C30.7597 8.88458 28.3864 9.42382 26.3355 10.3833C24.2845 11.3428 22.3504 12.7312 20.533 14.5485C19.2869 15.7947 18.1998 17.0981 17.2716 18.459C16.3435 19.8198 15.5787 21.1665 14.9773 22.4992ZM23.7198 18.4914C23.2244 17.996 22.9767 17.4016 22.9767 16.7082C22.9767 16.0148 23.2244 15.4204 23.7198 14.925C24.2153 14.4295 24.8167 14.1818 25.5242 14.1818C26.2316 14.1818 26.8331 14.4295 27.3285 14.925C27.8239 15.4204 28.0716 16.0148 28.0716 16.7082C28.0716 17.4016 27.8239 17.996 27.3285 18.4914C26.8331 18.9869 26.2316 19.2346 25.5242 19.2346C24.8167 19.2346 24.2153 18.9869 23.7198 18.4914ZM22.5418 32.7475L26.8969 28.3925C27.0267 28.2627 27.1186 28.1167 27.1727 27.9544C27.2268 27.7921 27.2322 27.6245 27.1889 27.4514L26.6924 24.8618C25.7665 25.606 24.8135 26.2848 23.8334 26.8981C22.8534 27.5114 21.8398 28.0799 20.7927 28.6035L22.5418 32.7475ZM35.0326 7.2111C35.2208 10.3113 34.7822 13.1633 33.7167 15.7671C32.6512 18.3708 30.9912 20.7998 28.7369 23.0541L28.1528 23.6383L28.8343 27.1009C28.9251 27.5552 28.9078 27.9955 28.7823 28.4217C28.6568 28.8479 28.4297 29.2254 28.1008 29.5543L21.9545 35.6683L19.1571 29.0773L13.1437 23.0639L6.55273 20.2341L12.657 14.1201C12.9858 13.7913 13.3649 13.5587 13.7944 13.4224C14.2238 13.2861 14.6657 13.2634 15.12 13.3543L18.6476 14.0682C18.7558 13.96 18.8477 13.8627 18.9234 13.7761C18.9991 13.6896 19.0911 13.5923 19.1993 13.4841C21.4536 11.2298 23.881 9.57361 26.4815 8.51566C29.082 7.45774 31.9323 7.02289 35.0326 7.2111ZM9.38579 28.0323C10.0457 27.3724 10.8478 27.0463 11.7921 27.0539C12.7365 27.0614 13.5386 27.3951 14.1984 28.055C14.8583 28.7149 15.1866 29.517 15.1834 30.4613C15.1801 31.4057 14.8486 32.2078 14.1887 32.8676C13.6154 33.441 12.6954 33.9321 11.4286 34.341C10.1619 34.7499 8.69675 35.0322 7.03304 35.188C7.1888 33.5242 7.47653 32.059 7.89624 30.7923C8.31595 29.5256 8.81247 28.6056 9.38579 28.0323ZM10.5898 29.259C10.2652 29.5835 9.96236 30.113 9.68111 30.8475C9.39986 31.582 9.2138 32.3398 9.12292 33.1208C9.90395 33.0299 10.6617 32.84 11.3962 32.5512C12.1307 32.2624 12.6602 31.9557 12.9847 31.6312C13.3222 31.2937 13.4942 30.8913 13.5007 30.424C13.5072 29.9567 13.3417 29.5543 13.0042 29.2168C12.6667 28.8793 12.2643 28.7176 11.797 28.7316C11.3297 28.7457 10.9273 28.9215 10.5898 29.259Z" fill="#052E16"/>
</g>
</svg>
