<svg width="161" height="160" viewBox="0 0 161 160" fill="none" xmlns="http://www.w3.org/2000/svg">
<mask id="mask0_120_102" style="mask-type:alpha" maskUnits="userSpaceOnUse" x="0" y="0" width="161" height="160">
<rect x="0.5" width="160" height="160" fill="#D9D9D9"/>
</mask>
<g mask="url(#mask0_120_102)">
<path d="M35.3709 133.333C32.4093 133.333 29.8741 132.279 27.7651 130.17C25.6561 128.061 24.6016 125.526 24.6016 122.564V37.4359C24.6016 34.4743 25.6561 31.9391 27.7651 29.8302C29.8741 27.7212 32.4093 26.6667 35.3709 26.6667H91.2682V33.3334H35.3709C34.1743 33.3334 33.1915 33.718 32.4222 34.4872C31.6529 35.2565 31.2682 36.2393 31.2682 37.4359V122.564C31.2682 123.761 31.6529 124.744 32.4222 125.513C33.1915 126.282 34.1743 126.667 35.3709 126.667H120.499C121.696 126.667 122.679 126.282 123.448 125.513C124.217 124.744 124.602 123.761 124.602 122.564V66.6667H131.268V122.564C131.268 125.526 130.214 128.061 128.105 130.17C125.996 132.279 123.461 133.333 120.499 133.333H35.3709ZM116.397 54.8719V41.5386H103.063V34.8719H116.397V21.5386H123.063V34.8719H136.397V41.5386H123.063V54.8719H116.397ZM47.9349 110H108.961L90.1146 84.8719L72.6786 106.923L61.0119 92.8206L47.9349 110Z" fill="#082F49"/>
</g>
</svg>
