<svg width="45" height="45" viewBox="0 0 45 45" fill="none" xmlns="http://www.w3.org/2000/svg">
    <circle cx="22.5" cy="22.5" r="22" stroke="#D4D4D4" />
    <path
        d="M27.45 28.35H38.925L40.275 26.55H27.45H23.4H18.675H3.825L5.175 28.35H16.425M27.45 28.35H16.425M27.45 28.35L26.325 30.375H17.325L16.425 28.35"
        stroke="#D4D4D4" stroke-width="2" />
    <path d="M32.175 28.3501L33.3 30.3751H37.125L38.25 28.3501" stroke="#D4D4D4" stroke-width="2" />
    <path
        d="M21.825 42.3V32.175M24.525 32.175V34.875M24.525 39.825V36.9M18.9 32.175V34.875M18.9 39.825V36.9"
        stroke="#D4D4D4" stroke-width="2" />
    <path d="M32.85 13.95H29.25V19.125H32.85V13.95Z" stroke="#D4D4D4" stroke-width="2" />
    <path
        d="M16.425 11.4751V18.0001V26.5501H8.55M16.425 11.4751L18.5464 8.1001M16.425 11.4751H8.55M27 11.4751V18.0001V26.5501H34.875M27 11.4751L24.5893 8.1001M27 11.4751H34.875M38.925 18.0001V26.5501H34.875M38.925 18.0001H34.875M38.925 18.0001L37.575 15.3001H34.875M5.175 18.0001V26.5501H8.55M5.175 18.0001H8.55M5.175 18.0001L6.075 15.3001H8.55M8.55 18.0001V15.3001M8.55 18.0001V26.5501M8.55 11.4751L10.125 8.1001H18.5464M8.55 11.4751V15.3001M34.875 11.4751L33.3 8.1001H24.5893M34.875 11.4751V15.3001M34.875 18.0001V15.3001M34.875 18.0001V26.5501M18.5464 8.1001L21.375 3.6001L24.5893 8.1001M19.35 26.5501V20.2501H24.075V26.5501"
        stroke="#D4D4D4" stroke-width="2" />
    <path d="M6.075 28.3501L6.975 30.3751H10.8L11.7 28.3501" stroke="#D4D4D4" stroke-width="2" />
    <path
        d="M10.125 31.7251V33.4126M10.125 36.6751V35.1001M7.65 31.7251V33.4126M7.65 36.6751V35.1001M33.975 31.7251V33.4126M33.975 36.6751V35.1001M36.45 31.7251V33.4126M36.45 36.6751V35.1001"
        stroke="#D4D4D4" stroke-width="2" />
    <circle cx="22.5" cy="22.5" r="21.5" stroke="#D4D4D4" stroke-width="2" />
    <g filter="url(#filter0_d_8_257)">
        <circle cx="21.6" cy="10.8001" r="1.7" stroke="#D4D4D4" stroke-width="2"
            shape-rendering="crispEdges" />
    </g>
    <defs>
        <filter id="filter0_d_8_257" x="14.9" y="8.1001" width="13.4" height="13.3999"
            filterUnits="userSpaceOnUse" color-interpolation-filters="sRGB">
            <feFlood flood-opacity="0" result="BackgroundImageFix" />
            <feColorMatrix in="SourceAlpha" type="matrix"
                values="0 0 0 0 0 0 0 0 0 0 0 0 0 0 0 0 0 0 127 0" result="hardAlpha" />
            <feOffset dy="4" />
            <feGaussianBlur stdDeviation="2" />
            <feComposite in2="hardAlpha" operator="out" />
            <feColorMatrix type="matrix" values="0 0 0 0 0 0 0 0 0 0 0 0 0 0 0 0 0 0 0.25 0" />
            <feBlend mode="normal" in2="BackgroundImageFix" result="effect1_dropShadow_8_257" />
            <feBlend mode="normal" in="SourceGraphic" in2="effect1_dropShadow_8_257" result="shape" />
        </filter>
    </defs>
</svg>