<?xml version="1.0" encoding="UTF-8" standalone="no"?>
<svg
   xmlns:dc="http://purl.org/dc/elements/1.1/"
   xmlns:cc="http://creativecommons.org/ns#"
   xmlns:rdf="http://www.w3.org/1999/02/22-rdf-syntax-ns#"
   xmlns:svg="http://www.w3.org/2000/svg"
   xmlns="http://www.w3.org/2000/svg"
   viewBox="0 0 377.95999 377.95999"
   height="377.95999"
   width="377.95999"
   xml:space="preserve"
   id="svg2"
   version="1.1"><metadata
     id="metadata8"><rdf:RDF><cc:Work
         rdf:about=""><dc:format>image/svg+xml</dc:format><dc:type
           rdf:resource="http://purl.org/dc/dcmitype/StillImage" /></cc:Work></rdf:RDF></metadata><defs
     id="defs6" /><g
     transform="matrix(1.3333333,0,0,-1.3333333,0,377.96)"
     id="g10"><g
       transform="scale(0.1)"
       id="g12"><path
         id="path14"
         style="fill:#ec008c;fill-opacity:1;fill-rule:nonzero;stroke:none"
         d="M 2834.65,0 H 0 V 2834.65 H 2834.65 V 0" /><path
         id="path16"
         style="fill:#ffffff;fill-opacity:1;fill-rule:nonzero;stroke:none"
         d="M 235.512,430.859 V 548.488 H 353.141 V 430.859 H 235.512" /><path
         id="path18"
         style="fill:#ffffff;fill-opacity:1;fill-rule:nonzero;stroke:none"
         d="M 594.07,430.859 V 548.488 H 711.777 V 430.859 H 594.07" /><path
         id="path20"
         style="fill:#ffffff;fill-opacity:1;fill-rule:nonzero;stroke:none"
         d="M 946.855,430.859 V 548.488 H 1064.53 V 430.859 H 946.855" /><path
         id="path22"
         style="fill:#ffffff;fill-opacity:1;fill-rule:nonzero;stroke:none"
         d="m 1299.79,430.859 v 117.629 h 117.57 V 430.859 h -117.57" /><path
         id="path24"
         style="fill:#ffffff;fill-opacity:1;fill-rule:nonzero;stroke:none"
         d="M 705.902,815.641 H 241.387 l -5.875,-204.903 30.902,-5.289 c 5.754,60.289 21.531,105.11 47.43,134.391 27.34,30.57 65.047,46.558 113.336,47.949 v -428.73 c 0,-37.457 -5.223,-61.68 -16.184,-72.911 -9.242,-9.488 -24.898,-15.449 -47.078,-17.636 -6.555,-0.473 -17.773,-0.782 -33.645,-0.782 v -32.89 h 286.723 v 32.89 c -15.844,0 -27.012,0.309 -33.605,0.782 -22.141,2.187 -37.856,8.148 -47.164,17.636 -10.907,11.231 -16.184,35.454 -16.184,72.911 v 428.73 c 48.348,-1.391 86.055,-17.379 113.273,-47.949 26.094,-29.281 41.875,-74.102 47.614,-134.391 l 30.847,5.289 -5.875,204.903" /><path
         id="path26"
         style="fill:#ffffff;fill-opacity:1;fill-rule:nonzero;stroke:none"
         d="m 268.832,2333.94 h 42.258 c 17.5,0 30.371,1.5 38.621,4.49 15.934,5.68 28.602,18.91 37.988,39.69 8.395,18.35 12.594,42.9 12.594,73.63 0,40.12 -8.824,69.71 -26.465,88.77 -8.535,9.11 -18.215,15.44 -29.023,19 -8.11,2.56 -18.282,3.84 -30.52,3.84 H 268.832 Z M 233.406,2303 v 291.3 h 80.242 c 21.911,0 40.047,-2.84 54.418,-8.53 24.899,-9.82 43.395,-28.89 55.489,-57.2 9.101,-21.34 13.656,-46.66 13.656,-75.97 0,-49.23 -11.523,-87.43 -34.574,-114.6 -13.375,-15.66 -29.235,-26.04 -47.586,-31.16 -9.25,-2.56 -21.844,-3.84 -37.778,-3.84 h -83.867" /><path
         id="path28"
         style="fill:#ffffff;fill-opacity:1;fill-rule:nonzero;stroke:none"
         d="m 598.77,2421.23 c -0.997,14.37 -3.629,26.25 -7.895,35.64 -8.254,18.06 -21.695,27.1 -40.332,27.1 -17.645,0 -30.875,-8.18 -39.691,-24.54 -5.414,-10.1 -9.039,-22.84 -10.887,-38.2 z m 33.293,-26.25 H 499.535 c 0.285,-13.52 2.207,-25.32 5.762,-35.43 8.535,-24.32 24.117,-36.49 46.738,-36.49 17.785,0 30.586,7.61 38.414,22.83 2.844,5.55 5.473,12.66 7.895,21.35 h 31.582 c -2.985,-16.36 -8.461,-29.88 -16.43,-40.55 -14.512,-19.92 -35,-29.88 -61.461,-29.88 -28.887,0 -50.789,11.1 -65.73,33.3 -13.231,19.63 -19.844,44.31 -19.844,74.05 0,30.87 7.605,56.34 22.832,76.4 15.078,19.77 35.352,29.66 60.82,29.66 21.055,0 38.555,-6.55 52.5,-19.63 15.078,-14.38 24.25,-35.71 27.528,-64.03 0.996,-8.39 1.636,-18.92 1.922,-31.58" /><path
         id="path30"
         style="fill:#ffffff;fill-opacity:1;fill-rule:nonzero;stroke:none"
         d="m 820.293,2303 h -30.512 v 27.11 c -14.801,-22.2 -34.433,-33.3 -58.902,-33.3 -24.191,0 -41.262,8.75 -51.215,26.25 -4.699,8.11 -7.473,17.14 -8.324,27.1 -0.574,6.97 -0.856,14.95 -0.856,23.9 v 129.97 h 32.653 v -118.44 c 0,-18.21 1.066,-31.23 3.203,-39.05 1.988,-7.12 5.902,-12.81 11.734,-17.08 5.832,-4.27 12.871,-6.4 21.129,-6.4 14.649,0 26.387,5.9 35.211,17.71 5.977,7.82 9.82,18.14 11.524,30.94 1.136,7.97 1.707,19.64 1.707,35 v 97.32 h 32.648 V 2303" /><path
         id="path32"
         style="fill:#ffffff;fill-opacity:1;fill-rule:nonzero;stroke:none"
         d="m 846.973,2476.93 v 27.1 h 29.023 v 30.09 l 26.68,35.43 h 5.976 v -65.52 h 34.356 v -27.1 h -34.356 v -118.87 c 0,-12.81 0.782,-20.7 2.344,-23.69 3.137,-5.83 8.613,-8.75 16.438,-8.75 4.129,0 9.312,0.93 15.574,2.77 v -26.89 c -8.535,-1.84 -16.074,-2.77 -22.617,-2.77 -19.356,0 -32.305,5.34 -38.836,16.01 -2.707,4.55 -4.348,11.52 -4.914,20.91 -0.43,6.12 -0.645,14.87 -0.645,26.25 v 115.03 h -29.023" /><path
         id="path34"
         style="fill:#ffffff;fill-opacity:1;fill-rule:nonzero;stroke:none"
         d="m 967.773,2359.77 h 33.497 c 0.86,-23.9 13.94,-35.86 39.28,-35.86 12.22,0 21.4,3.06 27.52,9.18 5.12,5.12 7.68,11.88 7.68,20.28 0,11.23 -5.83,20.41 -17.5,27.52 -4.4,2.7 -15.01,7.33 -31.79,13.88 -18.08,7.11 -30.874,14.72 -38.413,22.83 -9.395,10.24 -14.094,22.62 -14.094,37.13 0,17.22 6.125,31.09 18.352,41.62 10.955,9.25 25.545,13.87 43.745,13.87 26.04,0 44.61,-8.82 55.71,-26.46 5.41,-8.4 8.67,-18.92 9.81,-31.58 h -32.43 c -0.58,8.81 -3.07,15.93 -7.48,21.33 -6.11,7.26 -14.72,10.88 -25.82,10.88 -10.38,0 -18.28,-2.98 -23.68,-8.95 -4.27,-4.84 -6.4,-11.1 -6.4,-18.78 0,-8.11 2.83,-14.66 8.54,-19.64 5.54,-4.84 16.49,-10.31 32.85,-16.43 21.35,-7.83 36.21,-15.29 44.61,-22.41 12.8,-10.82 19.21,-24.61 19.21,-41.4 0,-18.21 -6.26,-32.94 -18.78,-44.17 -11.67,-10.53 -27.96,-15.8 -48.87,-15.8 -31.03,0 -52.644,9.82 -64.882,29.45 -6.407,10.1 -9.961,21.27 -10.665,33.51" /><path
         id="path36"
         style="fill:#ffffff;fill-opacity:1;fill-rule:nonzero;stroke:none"
         d="m 1265.26,2374.7 h 32.87 c -0.29,-15.65 -4.99,-30.37 -14.09,-44.17 -14.65,-22.48 -35.78,-33.72 -63.38,-33.72 -28.02,0 -49.59,10.39 -64.66,31.16 -14.37,19.77 -21.55,44.96 -21.55,75.55 0,29.59 6.75,54.13 20.28,73.62 15.36,22.05 37.05,33.08 65.07,33.08 24.91,0 44.75,-8.89 59.56,-26.67 8.96,-10.82 14.93,-25.19 17.92,-43.11 h -33.51 c -1.99,10.95 -5.26,19.7 -9.81,26.25 -8.4,11.52 -19.64,17.28 -33.73,17.28 -16.07,0 -28.73,-7.11 -37.98,-21.34 -9.96,-15.23 -14.95,-34.86 -14.95,-58.9 0,-24.48 4.77,-44.18 14.31,-59.11 9.25,-14.38 22.26,-21.56 39.05,-21.56 15.94,0 28.1,7.83 36.5,23.48 4.12,7.53 6.82,16.92 8.1,28.16" /><path
         id="path38"
         style="fill:#ffffff;fill-opacity:1;fill-rule:nonzero;stroke:none"
         d="m 1330.94,2303 v 291.3 h 32.64 v -114.6 c 13.52,20.35 32.37,30.52 56.56,30.52 24.18,0 41.41,-8.75 51.64,-26.25 5.98,-10.1 8.97,-26.89 8.97,-50.36 V 2303 h -32.66 v 126.77 c 0,17.78 -1.7,30.01 -5.12,36.7 -5.97,11.67 -16.36,17.5 -31.15,17.5 -19.93,0 -34.01,-10.03 -42.26,-30.09 -3.98,-9.82 -5.98,-28.46 -5.98,-55.92 V 2303 h -32.64" /><path
         id="path40"
         style="fill:#ffffff;fill-opacity:1;fill-rule:nonzero;stroke:none"
         d="m 1651.47,2421.23 c -1,14.37 -3.61,26.25 -7.89,35.64 -8.24,18.06 -21.7,27.1 -40.33,27.1 -17.64,0 -30.88,-8.18 -39.69,-24.54 -5.41,-10.1 -9.04,-22.84 -10.9,-38.2 z m 33.3,-26.25 h -132.52 c 0.27,-13.52 2.19,-25.32 5.76,-35.43 8.54,-24.32 24.1,-36.49 46.72,-36.49 17.79,0 30.61,7.61 38.42,22.83 2.85,5.55 5.49,12.66 7.89,21.35 h 31.6 c -2.99,-16.36 -8.47,-29.88 -16.44,-40.55 -14.52,-19.92 -35,-29.88 -61.47,-29.88 -28.87,0 -50.78,11.1 -65.72,33.3 -13.22,19.63 -19.84,44.31 -19.84,74.05 0,30.87 7.61,56.34 22.83,76.4 15.08,19.77 35.35,29.66 60.82,29.66 21.05,0 38.55,-6.55 52.5,-19.63 15.08,-14.38 24.26,-35.71 27.54,-64.03 0.97,-8.39 1.62,-18.92 1.91,-31.58" /><path
         id="path42"
         style="fill:#ffffff;fill-opacity:1;fill-rule:nonzero;stroke:none"
         d="m 291.664,1858.52 v 260.36 H 210.57 v 30.94 h 197.618 v -30.94 h -80.883 v -260.36 h -35.641" /><path
         id="path44"
         style="fill:#ffffff;fill-opacity:1;fill-rule:nonzero;stroke:none"
         d="m 530.422,1976.76 c -0.996,14.35 -3.629,26.25 -7.899,35.62 -8.25,18.07 -21.695,27.11 -40.332,27.11 -17.64,0 -30.875,-8.18 -39.691,-24.55 -5.41,-10.1 -9.039,-22.83 -10.883,-38.18 z m 33.289,-26.25 H 431.188 c 0.281,-13.54 2.207,-25.33 5.761,-35.43 8.535,-24.34 24.114,-36.51 46.739,-36.51 17.781,0 30.585,7.62 38.414,22.84 2.839,5.56 5.472,12.67 7.894,21.34 h 31.582 c -2.984,-16.36 -8.465,-29.88 -16.433,-40.54 -14.508,-19.92 -35,-29.89 -61.457,-29.89 -28.887,0 -50.793,11.12 -65.735,33.31 -13.226,19.62 -19.844,44.31 -19.844,74.04 0,30.88 7.61,56.35 22.832,76.4 15.079,19.78 35.352,29.67 60.821,29.67 21.054,0 38.554,-6.54 52.5,-19.63 15.078,-14.37 24.254,-35.72 27.531,-64.02 0.996,-8.4 1.637,-18.93 1.918,-31.58" /><path
         id="path46"
         style="fill:#ffffff;fill-opacity:1;fill-rule:nonzero;stroke:none"
         d="m 604.695,1858.52 v 291.3 h 32.653 v -291.3 h -32.653" /><path
         id="path48"
         style="fill:#ffffff;fill-opacity:1;fill-rule:nonzero;stroke:none"
         d="m 810.645,1976.76 c -0.997,14.35 -3.633,26.25 -7.903,35.62 -8.25,18.07 -21.691,27.11 -40.332,27.11 -17.64,0 -30.871,-8.18 -39.691,-24.55 -5.41,-10.1 -9.035,-22.83 -10.883,-38.18 z m 33.281,-26.25 h -132.52 c 0.282,-13.54 2.207,-25.33 5.762,-35.43 8.535,-24.34 24.117,-36.51 46.738,-36.51 17.782,0 30.586,7.62 38.418,22.84 2.832,5.56 5.469,12.67 7.891,21.34 h 31.582 c -2.988,-16.36 -8.457,-29.88 -16.426,-40.54 -14.512,-19.92 -35,-29.89 -61.465,-29.89 -28.886,0 -50.793,11.12 -65.73,33.31 -13.231,19.62 -19.848,44.31 -19.848,74.04 0,30.88 7.61,56.35 22.832,76.4 15.078,19.78 35.356,29.67 60.82,29.67 21.055,0 38.555,-6.54 52.5,-19.63 15.083,-14.37 24.25,-35.72 27.532,-64.02 0.996,-8.4 1.64,-18.93 1.914,-31.58" /><path
         id="path50"
         style="fill:#ffffff;fill-opacity:1;fill-rule:nonzero;stroke:none"
         d="m 884.063,1858.52 v 291.3 h 32.648 v -170.93 l 77.469,80.66 h 41.61 l -73.192,-74.69 77.892,-126.34 h -38.42 l -62.949,102.22 -22.41,-22.83 v -79.39 h -32.648" /><path
         id="path52"
         style="fill:#ffffff;fill-opacity:1;fill-rule:nonzero;stroke:none"
         d="m 1142.69,2039.49 c -15.93,0 -28.6,-6.54 -37.98,-19.63 -10.82,-15.23 -16.23,-35.07 -16.23,-59.55 0,-26.31 5.27,-46.95 15.8,-61.87 9.38,-13.24 22.32,-19.87 38.84,-19.87 14.79,0 26.53,5.63 35.2,16.88 11.82,15.35 17.72,36.78 17.72,64.22 0,25.33 -5.2,45.25 -15.58,59.76 -9.53,13.38 -22.12,20.06 -37.77,20.06 z m 0,26.25 c 26.61,0 47.8,-9.74 63.6,-29.24 15.21,-18.79 22.83,-44.45 22.83,-77.03 0,-36.42 -9.04,-64.31 -27.11,-83.67 -14.65,-15.64 -34.14,-23.48 -58.47,-23.48 -28.6,0 -50.51,10.12 -65.73,30.32 -14.94,19.92 -22.4,45.95 -22.4,78.1 0,28.73 6.68,52.58 20.06,71.49 15.93,22.34 38.34,33.51 67.22,33.51" /><path
         id="path54"
         style="fill:#ffffff;fill-opacity:1;fill-rule:nonzero;stroke:none"
         d="m 1269.25,1858.52 v 201.03 h 30.52 v -25.39 c 6.4,9.24 12.59,16.07 18.56,20.48 10.11,7.4 21.85,11.1 35.21,11.1 25.04,0 42.11,-11.1 51.23,-33.3 14.21,22.2 33.63,33.3 58.24,33.3 13.38,0 25.04,-3.56 35,-10.67 11.12,-8.11 17.93,-19.86 20.49,-35.21 1,-5.54 1.5,-13.02 1.5,-22.42 v -138.92 h -32.65 v 126.78 c 0,16.34 -1,27.59 -2.99,33.7 -4.55,13.66 -14.65,20.49 -30.29,20.49 -19.22,0 -32.31,-10.23 -39.28,-30.72 -2.56,-7.4 -3.83,-21.91 -3.83,-43.54 v -106.71 h -32.66 v 129.33 c 0,19.2 -2.13,32.29 -6.41,39.26 -5.26,8.26 -13.51,12.38 -24.74,12.38 -11.39,0 -21.13,-4.33 -29.24,-13.03 -8.12,-8.37 -13.03,-19.9 -14.73,-34.57 -0.86,-6.97 -1.29,-15.93 -1.29,-26.87 v -106.5 h -32.64" /><path
         id="path56"
         style="fill:#ffffff;fill-opacity:1;fill-rule:nonzero;stroke:none"
         d="m 209.293,1499.2 h 62.953 c 1.707,-11.39 4.34,-19.84 7.895,-25.39 7.398,-11.39 18.066,-17.07 32.011,-17.07 12.379,0 21.985,3.83 28.809,11.52 5.977,6.55 8.965,14.79 8.965,24.75 0,11.23 -4.766,20.78 -14.297,28.59 -4.555,3.71 -10.316,7.05 -17.285,10.04 -1.996,0.86 -9.18,3.48 -21.559,7.89 -23.898,8.4 -41.183,16.8 -51.851,25.18 -21.204,16.8 -31.797,38.77 -31.797,65.96 0,23.32 7.39,42.32 22.191,56.97 16.504,16.23 39.336,24.33 68.504,24.33 36.418,0 63.734,-12.46 81.949,-37.34 8.535,-11.68 14.157,-27.03 16.856,-46.11 h -61.032 c -1.425,11.25 -4.984,19.43 -10.671,24.55 -6.829,5.97 -16.008,8.96 -27.532,8.96 -9.812,0 -17.5,-2.34 -23.047,-7.05 -6.402,-5.25 -9.601,-12.73 -9.601,-22.4 0,-10.96 4.832,-19.79 14.512,-26.47 7.113,-5.11 21.195,-11.09 42.254,-17.92 24.613,-7.97 43.675,-17.29 57.191,-27.95 19.637,-15.65 29.453,-36.7 29.453,-63.17 0,-26.46 -9.105,-47.95 -27.316,-64.45 -18.922,-17.07 -44.176,-25.61 -75.758,-25.61 -37.707,0 -65.809,14.14 -84.297,42.46 -9.391,14.52 -15.227,31.1 -17.5,49.73" /><path
         id="path58"
         style="fill:#ffffff;fill-opacity:1;fill-rule:nonzero;stroke:none"
         d="m 420.723,1577.52 v 37.56 h 28.382 v 13.03 l 40.333,53.77 h 19.632 v -66.8 h 34.785 v -37.56 H 509.07 v -95.17 c 0.285,-10.53 0.856,-17.37 1.711,-20.49 1.707,-6.27 7.184,-9.4 16.43,-9.4 4.269,0 9.105,1 14.512,2.99 v -42.89 c -11.813,-2.56 -23.332,-3.85 -34.571,-3.85 -24.047,0 -40.41,6.47 -49.082,19.42 -4.695,6.97 -7.543,17.09 -8.539,30.31 -0.285,3.85 -0.426,12.52 -0.426,26.03 v 93.05 h -28.382" /><path
         id="path60"
         style="fill:#ffffff;fill-opacity:1;fill-rule:nonzero;stroke:none"
         d="m 577.73,1414.04 v 201.04 h 59.969 v -201.04 z m 0,233.05 v 58.26 h 59.969 v -58.26 H 577.73" /><path
         id="path62"
         style="fill:#ffffff;fill-opacity:1;fill-rule:nonzero;stroke:none"
         d="m 697.422,1414.04 v 161.78 h -25.82 v 39.26 h 25.82 v 17.93 c 0,15.08 0.855,26.46 2.562,34.14 6.688,30.02 28.954,45.04 66.797,45.04 1.133,0 9.391,-0.51 24.75,-1.5 v -43.54 c -5.968,0.86 -11.093,1.29 -15.359,1.29 -9.254,0 -14.942,-3.28 -17.074,-9.83 -1.137,-3.84 -1.711,-10.66 -1.711,-20.48 v -23.05 h 31.801 v -39.26 h -31.801 v -161.78 h -59.965" /><path
         id="path64"
         style="fill:#ffffff;fill-opacity:1;fill-rule:nonzero;stroke:none"
         d="m 808.789,1577.52 v 37.56 h 28.379 v 13.03 l 40.332,53.77 h 19.641 v -66.8 h 34.785 v -37.56 h -34.785 v -95.17 c 0.281,-10.53 0.847,-17.37 1.707,-20.49 1.711,-6.27 7.187,-9.4 16.425,-9.4 4.278,0 9.114,1 14.512,2.99 v -42.89 c -11.805,-2.56 -23.332,-3.85 -34.57,-3.85 -24.043,0 -40.41,6.47 -49.082,19.42 -4.688,6.97 -7.539,17.09 -8.535,30.31 -0.285,3.85 -0.43,12.52 -0.43,26.03 v 93.05 h -28.379" /><path
         id="path66"
         style="fill:#ffffff;fill-opacity:1;fill-rule:nonzero;stroke:none"
         d="m 1142.87,1615.08 v -201.04 h -57.84 v 18.58 c -13.1,-16.51 -30.6,-24.77 -52.49,-24.77 -25.33,0 -43.751,8.97 -55.274,26.9 -7.121,11.23 -10.672,28.59 -10.672,52.07 v 128.26 h 59.966 v -118.87 c 0,-13.94 1.35,-23.77 4.05,-29.45 4.13,-8.97 10.95,-13.44 20.48,-13.44 12.67,0 21.78,7.17 27.33,21.54 2.99,7.54 4.47,21.27 4.47,41.2 v 99.02 h 59.98" /><path
         id="path68"
         style="fill:#ffffff;fill-opacity:1;fill-rule:nonzero;stroke:none"
         d="m 1191.28,1414.04 v 201.04 h 57.83 v -18.57 c 13.09,16.5 30.59,24.76 52.49,24.76 25.33,0 43.75,-8.96 55.28,-26.89 7.11,-11.1 10.68,-28.46 10.68,-52.07 v -128.27 h -59.98 v 118.87 c 0,13.95 -1.35,23.77 -4.04,29.45 -4.15,8.97 -11.04,13.46 -20.71,13.46 -12.52,0 -21.63,-7.19 -27.32,-21.56 -2.84,-7.4 -4.26,-21.13 -4.26,-41.19 v -99.03 h -59.97" /><path
         id="path70"
         style="fill:#ffffff;fill-opacity:1;fill-rule:nonzero;stroke:none"
         d="m 1499.2,1577.52 c -10.39,0 -18.49,-5.06 -24.33,-15.16 -6.41,-10.8 -9.61,-24.74 -9.61,-41.81 0,-21.64 4.2,-38.28 12.6,-49.94 5.25,-7.41 12.09,-11.1 20.48,-11.1 12.52,0 21.92,6.76 28.17,20.28 5.12,10.93 7.69,24.25 7.69,39.9 0,17.64 -3.06,31.5 -9.18,41.62 -6.54,10.8 -15.15,16.21 -25.82,16.21 z m -87.93,-180.77 h 59.11 c 3.14,-14.78 12.67,-22.18 28.61,-22.18 14.08,0 23.61,5.84 28.59,17.5 3.85,9.24 5.76,22.54 5.76,39.9 v 8.97 c -12.38,-15.65 -28.59,-23.48 -48.65,-23.48 -23.77,0 -42.77,8.62 -56.99,25.82 -14.94,18.36 -22.41,43.26 -22.41,74.69 0,31.45 7.47,56.56 22.41,75.35 14.8,18.63 34.22,27.95 58.26,27.95 19.79,0 35.57,-8.05 47.38,-24.12 v 17.93 h 57.84 v -172.23 c 0,-33.71 -5.28,-58.19 -15.8,-73.4 -15.65,-22.77 -40.77,-34.16 -75.34,-34.16 -30.45,0 -53.34,7.19 -68.71,21.56 -10.66,9.96 -17.37,23.26 -20.06,39.9" /></g></g></svg>