<svg width="161" height="160" viewBox="0 0 161 160" fill="none" xmlns="http://www.w3.org/2000/svg">
<mask id="mask0_120_109" style="mask-type:alpha" maskUnits="userSpaceOnUse" x="0" y="0" width="161" height="160">
<rect x="0.5" width="160" height="160" fill="#D9D9D9"/>
</mask>
<g mask="url(#mask0_120_109)">
<path d="M31.2692 33.3335L41.2692 53.3335H61.2692L51.2692 33.3335H64.6025L74.6025 53.3335H94.6025L84.6025 33.3335H97.9358L107.936 53.3335H127.936L117.936 33.3335H129.731C132.799 33.3335 135.361 34.3613 137.417 36.4168C139.472 38.4724 140.5 41.0343 140.5 44.1027V115.898C140.5 118.966 139.472 121.528 137.417 123.584C135.361 125.639 132.799 126.667 129.731 126.667H31.2692C28.2008 126.667 25.6389 125.639 23.5833 123.584C21.5278 121.528 20.5 118.966 20.5 115.898V44.1027C20.5 41.0343 21.5278 38.4724 23.5833 36.4168C25.6389 34.3613 28.2008 33.3335 31.2692 33.3335ZM27.1667 60.0002V115.898C27.1667 117.094 27.5513 118.077 28.3205 118.846C29.0897 119.616 30.0726 120 31.2692 120H129.731C130.927 120 131.91 119.616 132.679 118.846C133.449 118.077 133.833 117.094 133.833 115.898V60.0002H27.1667Z" fill="#082F49"/>
</g>
</svg>
